<svg width="55" height="55" viewBox="0 0 55 55" fill="none" xmlns="http://www.w3.org/2000/svg">
<path d="M49.7599 11.1018C49.4294 9.88606 48.8003 8.9209 48.5669 8.56829C48.1814 7.98609 47.8934 7.55093 47.3739 7.12064C47.1936 6.97125 45.7122 5.78337 43.7032 6.03482C43.4167 6.07076 41.4828 6.31264 41.2256 7.39196C41.0989 7.92485 41.3923 8.61201 41.8679 8.83961C42.2659 9.03001 42.5542 8.78596 43.1529 8.74929C44.421 8.67144 45.4202 9.62774 45.5386 9.74443C46.6136 10.8026 46.4824 12.4105 46.4564 12.7304C46.1765 16.1608 41.5873 18.6213 38.7334 19.5245C37.514 19.9105 36.3887 20.0806 35.2939 20.1874C32.4206 18.155 28.839 17.1859 25.7178 17.2544C20.6318 17.3658 17.0823 20.2214 14.2474 22.5021C9.8742 26.0204 7.66609 30.2165 6.57513 32.2899C5.73717 33.8821 5.28136 35.1585 4.89407 36.2423C4.45998 37.4569 4.13837 38.3659 3.96696 39.099C3.87637 39.2798 2.86182 41.3572 3.01589 43.3945C3.04154 43.7331 3.11079 44.1904 3.44843 44.4141C3.52538 44.4654 3.81593 44.6366 4.45366 44.4621C4.80632 44.3656 5.25997 44.1631 5.75168 43.9085C6.01504 43.5417 6.19556 43.2079 6.23405 43.134C7.50222 39.7948 8.7702 36.4557 10.0382 33.1161C10.1108 32.9248 10.327 32.8277 10.5211 32.8994C10.7152 32.971 10.8136 33.1842 10.7409 33.3755C9.4704 36.7217 8.19993 40.0675 6.92925 43.4134L6.91348 43.449C6.90314 43.4655 6.47004 44.3322 5.80236 45.0114C5.57794 45.2378 5.3256 45.4459 5.03516 45.5904H5.03514C4.63375 45.7891 4.45048 45.8653 4.44134 45.8691L4.39352 45.8852C4.18974 45.9384 4.01011 45.9716 3.86659 46.0211C3.72179 46.0711 3.61753 46.1274 3.51892 46.2302L3.51862 46.2305C3.44919 46.3042 3.40591 46.3681 3.36482 46.4493C3.32417 46.5301 3.28731 46.631 3.24554 46.7645L3.24542 46.7648C3.20587 46.8893 3.13596 47.1174 3.13582 47.3926C3.13594 47.564 3.16285 47.7494 3.24057 47.939C3.39849 48.3237 3.69157 48.5399 3.8272 48.6346C4.2149 48.9072 4.67142 48.9998 5.11442 49C5.77238 49.0008 6.36408 48.7902 6.49967 48.74H6.49981C7.0555 48.5384 7.42624 48.2569 7.57227 48.1419C9.2929 46.795 10.2667 44.6662 10.3673 44.4264L10.3767 44.4045V44.4046C11.0605 42.7639 12.4957 40.3446 15.8058 36.8809C15.9479 36.7322 16.1854 36.7253 16.3362 36.8654C16.487 37.0055 16.4941 37.2397 16.3519 37.3884C13.0859 40.8064 11.7115 43.1487 11.0708 44.6858L11.0707 44.6859C11.0651 44.6991 10.811 45.3076 10.3083 46.1128C9.805 46.9178 9.0548 47.9214 8.04021 48.7203C8.00761 48.746 7.96192 48.7808 7.90971 48.8192C8.03859 48.8637 8.18071 48.8872 8.33831 48.8876C8.82824 48.8924 9.4155 48.6593 9.7196 48.4599L9.72 48.4597C9.8475 48.377 9.9304 48.3195 10.0973 48.1497C10.2621 47.9806 10.498 47.7024 10.8703 47.222C11.3024 46.6647 11.653 46.2107 11.9181 45.84C12.1834 45.47 12.3619 45.1809 12.4513 44.9726C12.454 44.9664 12.4543 44.9627 12.4568 44.9567C12.6982 44.8925 12.9648 44.8414 13.2634 44.8099C13.3589 44.7998 13.4549 44.79 13.5575 44.7844C14.3916 44.739 14.8149 44.8866 15.2172 44.9197C15.4041 45.6425 15.5909 46.3654 15.7778 47.0882C15.8289 47.2862 16.0332 47.4058 16.234 47.3553C16.4348 47.3049 16.5561 47.1035 16.5049 46.9055C16.3239 46.2051 16.1428 45.5047 15.9618 44.8043C15.9794 44.7974 15.996 44.7921 16.0142 44.7844C16.0872 44.7536 16.1577 44.7197 16.2258 44.6832C16.6458 45.3191 17.0657 45.9551 17.4858 46.5911C17.5989 46.7623 17.8314 46.8107 18.005 46.6992C18.1786 46.5877 18.2277 46.3585 18.1146 46.1873C17.6864 45.5389 17.2581 44.8904 16.8299 44.242C17.4412 43.6671 17.7494 42.9346 17.8244 42.7442C18.3392 41.4404 17.9305 40.423 18.7943 39.6846C18.9474 39.5538 19.0852 39.4786 19.2528 39.3952C19.4161 39.3139 21.845 38.1191 23.6433 37.9634C26.4241 37.7225 27.199 40.0101 30.1731 40.5769C30.5606 40.6508 30.951 40.6871 31.3412 40.6935C32.2032 40.8652 32.5835 40.434 35.1463 40.5014C37.0318 40.5509 38.1651 40.5928 39.4603 41.229C39.4603 41.229 41.3597 42.3284 42.2673 44.2584C42.4142 44.5712 42.5308 44.9824 42.2838 45.2259C42.0196 45.4864 41.5624 45.2136 41.2414 45.4445C40.7801 45.7768 40.8145 47.0449 41.4605 47.7028C42.2669 48.524 43.8755 48.2426 44.8233 47.6016C45.8449 46.9116 46.127 45.7859 46.2992 45.0553C46.7378 43.1919 46.2391 41.5954 46.046 41.0007C45.2029 38.4017 43.2188 33.5278 40.2993 27.3548C40.1422 26.747 39.9522 26.1765 39.7413 25.6601C39.3654 24.7386 38.8829 23.895 38.3179 23.1268C40.5635 22.7662 43.497 21.9174 46.1809 19.8783C48.2213 18.3281 48.9311 16.9913 49.1172 16.621C49.3455 16.1676 50.4894 13.7872 49.7599 11.1018Z" fill="#9DCCDB"/>
</svg>
